<?xml version="1.0" encoding="UTF-8"?>
<svg id="Calque_1" data-name="Calque 1" xmlns="http://www.w3.org/2000/svg" viewBox="0 0 48 46">
  <defs>
    <style>
      .cls-1 {
        fill: #cada7a;
      }
    </style>
  </defs>
  <path class="cls-1" d="M33.2,22.22c0,4.14-1.31,7.73-3.92,10.77l3.28,3.43-4.47,3.97-3.47-3.63c-2.47,1.38-5.14,2.08-8.03,2.08-4.6,0-8.51-1.61-11.74-4.82C1.61,30.82,0,26.88,0,22.22s1.61-8.59,4.84-11.8c3.23-3.21,7.14-4.82,11.74-4.82s8.52,1.61,11.76,4.82c3.24,3.21,4.86,7.15,4.86,11.8ZM16.59,32.68c1.19,0,2.38-.19,3.57-.56l-5.27-5.51,4.47-3.97,5.59,5.84c1.3-1.82,1.95-3.91,1.95-6.25,0-3.04-.99-5.56-2.97-7.53-1.98-1.98-4.43-2.97-7.35-2.97s-5.37.99-7.35,2.97-2.97,4.49-2.97,7.53.99,5.51,2.97,7.49c1.98,1.98,4.44,2.97,7.36,2.97Z"/>
  <circle class="cls-1" cx="42.78" cy="35.18" r="5.22"/>
</svg>